<svg width="32" height="32" viewBox="0 0 32 32" fill="none" xmlns="http://www.w3.org/2000/svg">
<g id="Header icon">
<path id="Icon" d="M8 16H24M8 16C8 20.4183 11.5817 24 16 24M8 16C8 11.5817 11.5817 8 16 8M24 16C24 20.4183 20.4183 24 16 24M24 16C24 11.5817 20.4183 8 16 8M16 8C18.001 10.1907 19.1382 13.0336 19.2 16C19.1382 18.9664 18.001 21.8093 16 24M16 8C13.999 10.1907 12.8618 13.0336 12.8 16C12.8618 18.9664 13.999 21.8093 16 24" stroke="#333741" stroke-width="1.2" strokeLinecap="round" stroke-linejoin="round"/>
</g>
</svg>
